<?xml version="1.0" standalone="no"?><!DOCTYPE svg PUBLIC "-//W3C//DTD SVG 1.1//EN" "http://www.w3.org/Graphics/SVG/1.1/DTD/svg11.dtd"><svg t="1681701940608" class="icon" viewBox="0 0 1024 1024" version="1.1" xmlns="http://www.w3.org/2000/svg" p-id="14655" width="128" height="128" xmlns:xlink="http://www.w3.org/1999/xlink"><path d="M490.666667 597.333333c203.392 0 362.666667-92.202667 362.666666-192S694.058667 213.333333 490.666667 213.333333C287.274667 213.333333 128 305.536 128 405.333333S287.274667 597.333333 490.666667 597.333333z m0 42.666667C266.794667 640 85.333333 534.954667 85.333333 405.333333S266.794667 170.666667 490.666667 170.666667 896 275.712 896 405.333333 714.538667 640 490.666667 640z" fill="#acacac" p-id="14656"></path><path d="M469.333333 64h42.666667v426.666667h-42.666667zM298.666667 64h42.666666v298.666667H298.666667zM640 64h42.666667v298.666667h-42.666667z" fill="#acacac" p-id="14657"></path><path d="M853.333333 704h42.666667c0 129.621333-181.461333 234.666667-405.333333 234.666667S85.333333 833.621333 85.333333 704h42.666667c0 99.797333 159.274667 192 362.666667 192 203.392 0 362.666667-92.202667 362.666666-192z m0 0h42.666667c0 129.621333-181.461333 234.666667-405.333333 234.666667S85.333333 833.621333 85.333333 704h42.666667c0 99.797333 159.274667 192 362.666667 192 203.392 0 362.666667-92.202667 362.666666-192z" fill="#acacac" p-id="14658"></path><path d="M85.333333 426.666667h42.666667v298.666666H85.333333zM853.333333 426.666667h42.666667v298.666666h-42.666667z" fill="#acacac" p-id="14659"></path></svg>