<?xml version="1.0" standalone="no"?><!DOCTYPE svg PUBLIC "-//W3C//DTD SVG 1.1//EN" "http://www.w3.org/Graphics/SVG/1.1/DTD/svg11.dtd"><svg t="1681702064152" class="icon" viewBox="0 0 1024 1024" version="1.1" xmlns="http://www.w3.org/2000/svg" p-id="15701" width="32" height="32" xmlns:xlink="http://www.w3.org/1999/xlink"><path d="M832 884H193c-47.4 0-86-38.6-86-86V358c0-47.4 38.6-86 86-86h639c47.4 0 86 38.6 86 86v440c0 47.4-38.6 86-86 86zM193 306c-28.7 0-52 23.3-52 52v440c0 28.7 23.3 52 52 52h639c28.7 0 52-23.3 52-52V358c0-28.7-23.3-52-52-52H193z" fill="#acacac" p-id="15702"></path><path d="M707 302.5h-34V226c0-28.7-23.3-52-52-52H404c-28.7 0-52 23.3-52 52v72.9h-34V226c0-47.4 38.6-86 86-86h217c47.4 0 86 38.6 86 86v76.5zM131.5 464.6h765.6v34H131.5z" fill="#acacac" p-id="15703"></path><path d="M688 555.9c-9.4 0-17-7.6-17-17V416c0-9.4 7.6-17 17-17s17 7.6 17 17v122.9c0 9.4-7.6 17-17 17zM333 555.9c-9.4 0-17-7.6-17-17V416c0-9.4 7.6-17 17-17s17 7.6 17 17v122.9c0 9.4-7.6 17-17 17z" fill="#acacac" p-id="15704"></path></svg>